# xmcd CD database file
#
# Track frame offsets:
#	150
#	12150
#	28250
#	42075
#	53125
#	76125
#	89700
#	109487
#	122350
#	135600
#	156825
#	171762
#	185150
#	200562
#	219012
#	233825
#	247850
#	273925
#	291550
#	306525
#
# Disc length: 4329 seconds
#
# Revision: 0
# Processed by: cddbd v1.4PL0 Copyright (c) Steve Scherf et al.
# Submitted via: CDex 1.51
#
DISCID=1e10e714
DTITLE=Лига Блюза - Неужели прошло 15 лет
DYEAR=1900
DGENRE=Blues
TTITLE0=Girls On The Brain
TTITLE1=Nineteenth Nervous Breakdown
TTITLE2=Think
TTITLE3=I Can't Be Satisfied
TTITLE4=Развяжи мне руки
TTITLE5=Honest I Do
TTITLE6=Июльский блюз
TTITLE7=Мой мышонок
TTITLE8=Strange Brew
TTITLE9=Red House
TTITLE10=Рок-н-рол мяу-мяу
TTITLE11=Purple Haze
TTITLE12=In From The Storm
TTITLE13=Открой глаза, дружище
TTITLE14=Freedom
TTITLE15=See You Later, Alligator
TTITLE16=Sleepy Time Time
TTITLE17=Ваша дочь
TTITLE18=Нельзя - хочу
TTITLE19=Gloria
EXTD=
EXTT0=
EXTT1=
EXTT2=
EXTT3=
EXTT4=
EXTT5=
EXTT6=
EXTT7=
EXTT8=
EXTT9=
EXTT10=
EXTT11=
EXTT12=
EXTT13=
EXTT14=
EXTT15=
EXTT16=
EXTT17=
EXTT18=
EXTT19=
PLAYORDER=
